<?xml version="1.0" encoding="UTF-8" standalone="no"?>
<svg width="107px" height="113px" viewBox="0 0 107 113" version="1.1" xmlns="http://www.w3.org/2000/svg" xmlns:xlink="http://www.w3.org/1999/xlink" xmlns:sketch="http://www.bohemiancoding.com/sketch/ns">
    <!-- Generator: Sketch 3.5.1 (25234) - http://www.bohemiancoding.com/sketch -->
    <title>Logo</title>
    <desc>Created with Sketch.</desc>
    <defs></defs>
    <g id="Page-1" stroke="none" stroke-width="1" fill="none" fill-rule="evenodd" sketch:type="MSPage">
        <g id="Logo" sketch:type="MSLayerGroup">
            <path d="M74.1679691,22.6350935 L94.9971334,22.6350935 L105.007813,62.8193358 L84.4101566,64.5246237 L74.1679691,22.6350935 Z" id="Rectangle-1" fill="#C7CACC" sketch:type="MSShapeGroup"></path>
            <path d="M94,24.802112 L22,24.8021126 L22,2.13892051 L89.2170871,2.13892051 L94,24.802112 Z" id="Rectangle-1" fill="#C7CACC" sketch:type="MSShapeGroup"></path>
            <path d="M88.2367036,0.79296875 C89.1673777,0.79296875 90.1556357,1.73086735 90.4466054,2.89528246 L106.364269,62.4223118 C106.695081,63.5833876 105.848469,64.5246255 104.493697,64.5246255 L2.06230779,64.5246255 C0.69809202,64.5246255 -0.139465601,63.5867269 0.192998017,62.4223118 L16.1463867,2.89528246 C16.43722,1.73420666 17.4333188,0.79296875 18.3575503,0.79296875 L88.2367036,0.79296875 Z" id="Rectangle-1" stroke="#62BEEB" stroke-width="4" sketch:type="MSShapeGroup"></path>
            <rect id="Rectangle-2" fill="#62BEEB" sketch:type="MSShapeGroup" x="0" y="70" width="107" height="43" rx="3"></rect>
            <rect id="Rectangle-3" fill="#FFFFFF" sketch:type="MSShapeGroup" x="5" y="75" width="4" height="33" rx="3"></rect>
            <rect id="Rectangle-4" fill="#FFFFFF" sketch:type="MSShapeGroup" x="5" y="104" width="20" height="4" rx="3"></rect>
            <rect id="Rectangle-3-Copy" fill="#FFFFFF" sketch:type="MSShapeGroup" x="30" y="75" width="4" height="33" rx="3"></rect>
            <rect id="Rectangle-4-Copy" fill="#FFFFFF" sketch:type="MSShapeGroup" x="30" y="104" width="20" height="4" rx="3"></rect>
            <rect id="Rectangle-3-Copy-2" fill="#FFFFFF" sketch:type="MSShapeGroup" x="55" y="75" width="4" height="33" rx="3"></rect>
            <rect id="Rectangle-4-Copy-2" fill="#FFFFFF" sketch:type="MSShapeGroup" x="55" y="104" width="20" height="4" rx="3"></rect>
            <rect id="Rectangle-3-Copy-3" fill="#FFFFFF" sketch:type="MSShapeGroup" x="80" y="75" width="4" height="33" rx="3"></rect>
            <rect id="Rectangle-4-Copy-3" fill="#FFFFFF" sketch:type="MSShapeGroup" x="80" y="104" width="20" height="4" rx="3"></rect>
        </g>
    </g>
</svg>